<?xml version="1.0" encoding="UTF-8" standalone="no"?>
<svg xmlns:dc="http://purl.org/dc/elements/1.1/" xmlns:cc="http://creativecommons.org/ns#" xmlns:rdf="http://www.w3.org/1999/02/22-rdf-syntax-ns#" xmlns:svg="http://www.w3.org/2000/svg" xmlns="http://www.w3.org/2000/svg" width="330" height="280" viewBox="0 0 330 280" id="svg5371" version="1.1">
  <title id="title6050">Book Pictograph 2</title>
  <defs id="defs5373"/>
  <g id="layer1" transform="translate(-207.04724,-386.1811)">
    <g id="g6001">
      <path id="path5999" d="m 228.48028,421.84446 139.31475,57.8692 145.74466,-53.58259 0,167.1777 -141.45805,53.5826 -147.88797,-55.72591 z" style="opacity:1;fill:#ffffff;fill-opacity:1;stroke:none;stroke-width:1.5;stroke-linecap:round;stroke-linejoin:miter;stroke-miterlimit:4;stroke-dasharray:none;stroke-dashoffset:0;stroke-opacity:1"/>
      <g transform="matrix(6.8181818,0,0,5.429031,215.22906,390.32159)" id="Expanded">
        <g id="g4374">
          <g id="g4376">
            <path d="m 23,48.049 c -0.147,0 -0.294,-0.032 -0.43,-0.097 l -21,-10 C 1.222,37.786 1,37.435 1,37.049 l 0,-31 C 1,5.706 1.176,5.387 1.466,5.203 1.755,5.02 2.12,4.999 2.43,5.146 L 23,14.941 43.57,5.145 C 43.88,4.999 44.243,5.019 44.533,5.203 44.824,5.387 45,5.706 45,6.049 l 0,31 c 0,0.386 -0.222,0.737 -0.57,0.903 l -21,10 C 23.294,48.017 23.147,48.049 23,48.049 Z M 3,36.417 23,45.941 43,36.417 43,7.633 23.43,16.952 c -0.271,0.129 -0.588,0.129 -0.859,0 L 3,7.633 3,36.417 Z" id="path4378"/>
          </g>
          <g id="g4380">
            <path d="M 23,12.204 5.567,3.903 C 5.068,3.665 4.857,3.068 5.094,2.57 5.332,2.071 5.928,1.862 6.427,2.096 L 23,9.989 39.573,2.096 c 0.5,-0.234 1.095,-0.025 1.333,0.474 0.237,0.498 0.026,1.095 -0.473,1.333 L 23,12.204 Z" id="path4382"/>
          </g>
          <g id="g4384">
            <rect height="31" width="2" x="22" y="16.049" id="rect4386"/>
          </g>
        </g>
      </g>
    </g>
  </g>
</svg>